<?xml version="1.0" encoding="UTF-8"?>
<svg version="1.1" xmlns="http://www.w3.org/2000/svg" width="2084" height="2084">
<path d="M0 0 C687.72 0 1375.44 0 2084 0 C2084 687.72 2084 1375.44 2084 2084 C1396.28 2084 708.56 2084 0 2084 C0 1396.28 0 708.56 0 0 Z " fill="#2C4257" transform="translate(0,0)"/>
<path d="M0 0 C2.03960481 -0.00330618 4.07920897 -0.00703332 6.11881232 -0.01114148 C11.6879771 -0.02108336 17.2571311 -0.02486554 22.82630348 -0.02753079 C28.847067 -0.03145708 34.86782218 -0.04103344 40.88858032 -0.04974365 C54.7226827 -0.06850951 68.55678565 -0.07875278 82.39089711 -0.08720433 C89.23993808 -0.09142332 96.0889782 -0.09664354 102.93801845 -0.10188886 C126.4226573 -0.11977032 149.90729643 -0.13476291 173.39194107 -0.14220905 C174.86377561 -0.14268379 176.33561014 -0.14315968 177.80744468 -0.14363671 C178.5372728 -0.14387309 179.26710092 -0.14410947 180.01904505 -0.14435301 C183.71612688 -0.14555409 187.41320871 -0.14676958 191.11029053 -0.147995 C191.84395871 -0.14823515 192.5776269 -0.14847529 193.33352746 -0.14872272 C217.10147908 -0.15660932 240.86938071 -0.18003243 264.63731052 -0.21255094 C289.81724562 -0.24693788 314.99715149 -0.26656826 340.17711043 -0.26985329 C342.9473761 -0.27027077 345.71764176 -0.27075032 348.48790741 -0.27127647 C349.51094448 -0.27146126 349.51094448 -0.27146126 350.55464896 -0.27164978 C361.47498785 -0.27397051 372.39526809 -0.28956659 383.31558616 -0.31011832 C394.31579448 -0.33049018 405.31594263 -0.33546991 416.31616774 -0.32634769 C422.26182077 -0.32182886 428.20728543 -0.32354724 434.15291214 -0.34310913 C490.95860653 -0.51972026 490.95860653 -0.51972026 515.92279053 7.77217102 C517.50592041 8.27986023 517.50592041 8.27986023 519.12103271 8.79780579 C567.47634252 24.8786731 601.51781214 60.01251889 624.36419678 104.58467102 C650.917721 157.68252025 658.65202336 218.89456625 639.79779053 275.77217102 C629.48402329 306.07964434 613.20965266 332.71505779 590.92816162 355.71992493 C589.62916695 357.0630312 588.34761661 358.42294644 587.06732178 359.78388977 C559.70298749 388.21958462 519.53719968 409.56002444 480.54779053 415.14717102 C479.38722764 410.64526663 478.3193549 406.14091734 477.35638428 401.59248352 C472.38455881 378.43235467 464.97395459 356.42472309 454.54779053 335.14717102 C454.10596436 334.23902649 453.66413818 333.33088196 453.20892334 332.3952179 C433.11700655 291.48432818 403.09087406 254.50734347 366.54779053 227.14717102 C365.87941162 226.6383136 365.21103271 226.12945618 364.5223999 225.60517883 C353.50042672 217.23438202 342.06177778 210.08338152 329.91937256 203.45039368 C327.85212038 202.31440519 325.80475485 201.15168783 323.76263428 199.97138977 C312.2268879 193.4817196 299.89770835 188.8421811 287.54779053 184.14717102 C286.65285889 183.8023468 285.75792725 183.45752258 284.83587646 183.10224915 C277.4446585 180.32139486 269.92614964 178.17647701 262.29779053 176.14717102 C261.64771027 175.97353027 260.99763 175.79988953 260.32785034 175.62098694 C249.13197759 172.64665851 237.89654607 170.3044422 226.43809509 168.58213806 C223.19758854 168.0944685 219.9587105 167.59672295 216.71990967 167.09785461 C215.56068497 166.91934967 214.40146027 166.74084473 213.20710754 166.55693054 C212.32953293 166.4217099 211.45195831 166.28648926 210.54779053 166.14717102 C210.53748306 165.12208939 210.5271756 164.09700775 210.51655579 163.04086304 C210.41899384 153.40203864 210.31627654 143.76328129 210.20845127 134.12456608 C210.1531785 129.1686639 210.09975168 124.21275588 210.05047607 119.25679016 C210.00289656 114.47813032 209.95055635 109.6995446 209.89484978 104.92097282 C209.87439706 103.09365613 209.85568891 101.26631908 209.83871651 99.43896675 C209.81473679 96.88858268 209.78467388 94.33834005 209.75311279 91.78804016 C209.74735733 91.02487488 209.74160187 90.26170959 209.735672 89.47541809 C209.99511986 86.02025252 209.99511986 86.02025252 208.54779053 83.14717102 C201.34090662 82.04517118 196.70974052 85.51336466 190.73529053 89.20967102 C188.5809238 90.50490904 186.42595524 91.79914646 184.27044678 93.09248352 C183.1607251 93.76440735 182.05100342 94.43633118 180.90765381 95.12861633 C175.53840394 98.35437988 170.10547246 101.46734933 164.67279053 104.58467102 C162.49031004 105.84215585 160.30801939 107.09997024 158.12591553 108.35810852 C154.83628763 110.25311402 151.54653124 112.14789632 148.2567749 114.04267883 C144.97847991 115.93115595 141.70050567 117.82018768 138.42279053 119.70967102 C137.34384521 120.33164368 136.2648999 120.95361633 135.15325928 121.59443665 C127.97907102 125.7340555 120.82219072 129.90242023 113.67279053 134.08467102 C104.40215122 139.50675801 95.08842354 144.85041114 85.75732422 150.16740417 C77.66071209 154.78201131 69.58990252 159.43801988 61.54779053 164.14717102 C52.32615298 169.54700691 43.06096683 174.86695999 33.77590942 180.15660095 C24.29736624 185.55775909 14.85713532 191.02196868 5.44818115 196.5436554 C4.53874756 197.07668274 3.62931396 197.60971008 2.69232178 198.15888977 C1.83195312 198.6650885 0.97158447 199.17128723 0.08514404 199.69282532 C-3.1454607 201.54452477 -6.44045842 203.26489394 -9.75982666 204.95185852 C-11.8203158 206.15283192 -11.8203158 206.15283192 -12.51470947 209.45967102 C-12.48377197 210.78998352 -12.48377197 210.78998352 -12.45220947 212.14717102 C-5.2814623 217.13035107 2.20106082 221.47748581 9.79779053 225.77217102 C11.04831579 226.48259428 12.29863858 227.19337405 13.54876709 227.90449524 C16.05013427 229.32684366 18.55239354 230.74759868 21.05560303 232.16670227 C25.80741893 234.86077754 30.55393759 237.56410051 35.29779053 240.27217102 C36.13189453 240.74823792 36.96599854 241.22430481 37.82537842 241.71479797 C45.32671073 246.00467424 52.7889193 250.36064188 60.24920654 254.72138977 C75.50751081 263.63662865 90.81946455 272.45915422 106.17279053 281.20967102 C114.56706588 285.99482512 122.91818588 290.85130229 131.25970459 295.72773743 C138.63404316 300.03669699 146.02335909 304.31895298 153.42279053 308.58467102 C154.49102051 309.20052063 155.55925049 309.81637024 156.65985107 310.45088196 C161.12737918 313.02558277 165.59558612 315.59910293 170.06439209 318.17158508 C172.42125343 319.5283236 174.77785977 320.88550323 177.13421631 322.24311829 C179.33785922 323.51263221 181.54193008 324.7814037 183.746521 326.04927063 C184.75343994 326.62942932 185.76035889 327.20958801 186.79779053 327.80732727 C187.76329834 328.36178528 188.72880615 328.91624329 189.72357178 329.48750305 C191.61424702 330.59856895 193.48697356 331.74072813 195.34075928 332.91230774 C196.21345459 333.46289856 197.0861499 334.01348938 197.98529053 334.58076477 C199.12804443 335.32217712 199.12804443 335.32217712 200.29388428 336.0785675 C202.9406687 337.33343919 204.65167171 337.50042258 207.54779053 337.14717102 C210.3829654 334.31199615 209.85527832 331.55765286 209.86663818 327.75996399 C209.88170662 326.61835815 209.88170662 326.61835815 209.89707947 325.45368958 C209.92802755 322.93225374 209.94497861 320.41092463 209.96185303 317.88935852 C209.98055535 316.14342829 210.00012806 314.39750717 210.02053833 312.65159607 C210.07196447 308.051787 210.11153392 303.45194859 210.14868164 298.852005 C210.18865576 294.15995463 210.23977808 289.46802741 210.28997803 284.77607727 C210.38686133 275.56652823 210.47122625 266.35690982 210.54779053 257.14717102 C212.11406458 257.29118669 213.67999962 257.43889153 215.24578857 257.58808899 C216.55388741 257.71085709 216.55388741 257.71085709 217.88841248 257.83610535 C251.5001863 261.76765207 284.92672437 277.87205616 311.54779053 298.14717102 C312.35603271 298.76076477 313.1642749 299.37435852 313.99700928 300.00654602 C354.84945956 331.84645897 382.10169396 377.25541047 391.54779053 428.14717102 C391.71150146 429.01213196 391.8752124 429.8770929 392.04388428 430.76826477 C401.3884176 482.1245843 388.81458602 536.12514851 360.48529053 579.64717102 C359.19370273 581.49529665 357.88070269 583.3286242 356.54779053 585.14717102 C355.77950928 586.19904602 355.01122803 587.25092102 354.21966553 588.33467102 C348.47918362 596.05297561 342.19685236 603.2007759 335.54779053 610.14717102 C335.02733154 610.70017883 334.50687256 611.25318665 333.97064209 611.82295227 C315.95133035 630.90855921 294.3475455 645.22020274 270.54779053 656.14717102 C269.89020752 656.4510675 269.23262451 656.75496399 268.55511475 657.06806946 C240.80785952 669.69209381 210.55046924 674.47318426 180.27903748 674.40786743 C178.27156728 674.41089391 176.26409823 674.41478587 174.2566312 674.41946 C168.78091922 674.42968534 163.30527311 674.42757216 157.82955587 674.4232794 C151.90764953 674.42080208 145.98575863 674.42983899 140.06385803 674.43731689 C128.47577297 674.45003975 116.88770969 674.45186617 105.29961898 674.44951663 C95.87183525 674.44767881 86.44405829 674.44945381 77.01627541 674.45374107 C75.65828255 674.4543435 74.30028969 674.4549447 72.94229684 674.45554468 C70.89548186 674.45645201 68.84866689 674.45736068 66.80185192 674.45827703 C47.78480764 674.46669964 28.76776591 674.47104725 9.75072002 674.46687031 C9.03472137 674.46671393 8.31872272 674.46655756 7.58102714 674.46639644 C3.9526993 674.46559075 0.32437146 674.46474498 -3.30395637 674.46388314 C-4.02445116 674.46371205 -4.74494595 674.46354096 -5.48727392 674.46336469 C-6.9442897 674.46301803 -8.40130548 674.4626695 -9.85832126 674.4623191 C-32.50494851 674.4569677 -55.15153677 674.46487861 -77.79815674 674.48335266 C-103.29026402 674.50412397 -128.78234715 674.51478527 -154.27446336 674.51077718 C-156.99921588 674.51038189 -159.7239684 674.51002033 -162.44872093 674.50967979 C-163.11953394 674.50958906 -163.79034695 674.50949833 -164.48148762 674.50940485 C-174.55797955 674.50824442 -184.63444587 674.51488189 -194.71093178 674.52549171 C-206.19088719 674.53745753 -217.67078528 674.53875275 -229.15074155 674.52670155 C-234.99712917 674.52084809 -240.84341223 674.5196143 -246.68979263 674.53170395 C-292.48214724 674.61969833 -334.36120334 671.39846149 -375.45220947 649.14717102 C-376.06677002 648.81717102 -376.68133057 648.48717102 -377.31451416 648.14717102 C-385.47652156 643.73201224 -393.10743982 638.8252002 -400.45220947 633.14717102 C-401.29396729 632.49877258 -402.1357251 631.85037415 -403.00299072 631.18232727 C-409.05832269 626.42658444 -414.83982771 621.4172373 -420.45220947 616.14717102 C-420.97830811 615.65507141 -421.50440674 615.1629718 -422.04644775 614.65596008 C-446.1606086 591.91358373 -464.23646087 562.64415562 -474.45220947 531.14717102 C-474.72017334 530.33054993 -474.98813721 529.51392883 -475.26422119 528.67256165 C-486.43818905 494.01100777 -489.41378936 453.697559 -480.45220947 418.14717102 C-480.2161499 417.17940735 -479.98009033 416.21164368 -479.73687744 415.21455383 C-468.51544632 370.34329929 -442.87320067 329.77416814 -406.45220947 301.14717102 C-404.93820557 299.92513977 -404.93820557 299.92513977 -403.39361572 298.67842102 C-395.50462944 292.37674121 -387.23499963 287.11002657 -378.45220947 282.14717102 C-377.81364014 281.77737122 -377.1750708 281.40757141 -376.51715088 281.02656555 C-360.59220363 271.84292697 -343.42095202 265.32918769 -325.57720947 260.95967102 C-324.239646 260.62854309 -324.239646 260.62854309 -322.87506104 260.29072571 C-320.75423083 259.81004878 -318.60354488 259.46454624 -316.45220947 259.14717102 C-314.06816054 261.53121996 -314.0155961 262.58998956 -313.47955322 265.86201477 C-313.30714111 266.84460266 -313.134729 267.82719055 -312.95709229 268.83955383 C-312.76985596 269.9104425 -312.58261963 270.98133118 -312.38970947 272.08467102 C-305.54030248 308.4635707 -289.40465734 346.24714731 -267.45220947 376.14717102 C-266.98605225 376.79154114 -266.51989502 377.43591125 -266.03961182 378.09980774 C-251.39134934 398.29848269 -234.8379003 418.29464295 -215.27252197 433.88154602 C-213.40717405 435.38002496 -211.56762126 436.91125012 -209.75689697 438.47529602 C-196.52182943 449.90390588 -181.70716983 459.62377566 -166.45220947 468.14717102 C-165.23984619 468.82513733 -165.23984619 468.82513733 -164.00299072 469.51679993 C-129.70556212 488.48297398 -93.26809026 500.29562476 -54.62750244 506.20307922 C-53.46781952 506.38063248 -52.3081366 506.55818573 -51.11331177 506.74111938 C-50.23514801 506.87511642 -49.35698425 507.00911346 -48.45220947 507.14717102 C-48.44007919 508.67813164 -48.44007919 508.67813164 -48.42770386 510.24002075 C-48.35028907 519.84884052 -48.26256167 529.45751787 -48.16468239 539.06615162 C-48.11469207 544.00629672 -48.0683623 548.94642015 -48.03033447 553.88667297 C-47.9935162 558.65243148 -47.94716573 563.41800988 -47.89414597 568.18361473 C-47.8755836 570.00368281 -47.86048248 571.82378952 -47.84886551 573.64391518 C-47.8320345 576.18921562 -47.80300742 578.73410189 -47.77105713 581.2792511 C-47.76889694 582.03522583 -47.76673676 582.79120056 -47.76451111 583.57008362 C-47.7045319 587.29926477 -47.57463523 588.96353238 -45.45220947 592.14717102 C-39.19745625 593.50861573 -34.23582359 589.58256525 -29.07720947 586.52217102 C-28.07061279 585.93895081 -27.06401611 585.35573059 -26.0269165 584.75483704 C-22.82806599 582.89779953 -19.639952 581.02319926 -16.45220947 579.14717102 C-14.4164127 577.95983806 -12.37996525 576.77361998 -10.34283447 575.58857727 C-6.32138946 573.24767777 -2.30372475 570.90046251 1.71185303 568.54951477 C7.1367649 565.3791698 12.586958 562.25513464 18.04779053 559.14717102 C25.43023285 554.94468589 32.77897658 550.68820254 40.11029053 546.39717102 C48.89164579 541.2585366 57.70793255 536.18419135 66.54779053 531.14717102 C76.26533309 525.60943792 85.9492031 520.01745161 95.60369873 514.37031555 C109.928287 505.99418414 124.29743055 497.69325873 138.72186279 489.4901886 C141.26156004 488.04281872 143.7955238 486.58579481 146.32904053 485.12763977 C150.09757763 482.96145565 153.89443188 480.85348071 157.70404053 478.76045227 C159.73564797 477.61916124 161.76690662 476.47724907 163.79779053 475.33467102 C164.75781982 474.81952942 165.71784912 474.30438782 166.70697021 473.77363586 C172.13517225 470.8204074 172.13517225 470.8204074 174.65716553 465.38545227 C174.62107178 464.31681946 174.58497803 463.24818665 174.54779053 462.14717102 C174.54779053 461.48717102 174.54779053 460.82717102 174.54779053 460.14717102 C173.91486084 459.92545227 173.28193115 459.70373352 172.62982178 459.47529602 C168.3035806 457.61100958 164.3097162 455.25397635 160.23529053 452.89717102 C159.31812256 452.36994446 158.40095459 451.8427179 157.45599365 451.29951477 C149.44833537 446.68822672 141.47024082 442.02610989 133.49383545 437.36103821 C127.03288232 433.58544629 120.55112603 429.84923139 114.04779053 426.14717102 C106.66538932 421.9446126 99.31660546 417.68820312 91.98529053 413.39717102 C83.20393757 408.25853795 74.38773598 403.18403551 65.54779053 398.14717102 C55.70882125 392.54107817 45.90689422 386.87523565 36.13372803 381.15498352 C28.94146299 376.94909289 21.71634963 372.80422226 14.47528076 368.68305969 C8.86405524 365.48442327 3.27710879 362.24676027 -2.29669189 358.98335266 C-6.31611558 356.63089048 -10.34197761 354.28955137 -14.36773682 351.94795227 C-16.47278752 350.71897855 -18.57454533 349.48435148 -20.67340088 348.24482727 C-23.82131766 346.38657309 -26.97937011 344.54669697 -30.13970947 342.70967102 C-31.1018335 342.13547424 -32.06395752 341.56127747 -33.05523682 340.96968079 C-33.95322998 340.45204163 -34.85122314 339.93440247 -35.77642822 339.40107727 C-36.56106445 338.94031799 -37.34570068 338.47955872 -38.15411377 338.00483704 C-41.02673087 336.93275546 -42.56549893 337.1994357 -45.45220947 338.14717102 C-48.27177055 340.9667321 -47.75961359 343.66645338 -47.77105713 347.44258118 C-47.78110275 348.19389816 -47.79114838 348.94521515 -47.80149841 349.71929932 C-47.83244498 352.20826943 -47.84939712 354.69713145 -47.86627197 357.18623352 C-47.88497442 358.90974363 -47.90454713 360.6332445 -47.92495728 362.35673523 C-47.97638212 366.89735984 -48.01595226 371.43801416 -48.05310059 375.97877502 C-48.09307552 380.61050328 -48.14419747 385.2421068 -48.19439697 389.87373352 C-48.29127874 398.96479186 -48.37564415 408.05592047 -48.45220947 417.14717102 C-73.54201396 414.61117743 -97.36129897 406.08979374 -119.45220947 394.14717102 C-120.05081787 393.82780579 -120.64942627 393.50844055 -121.26617432 393.17939758 C-165.8957772 369.21637832 -200.57555945 327.77873148 -217.45220947 280.14717102 C-217.73451416 279.3505304 -218.01681885 278.55388977 -218.30767822 277.73310852 C-230.62087215 242.13776188 -233.3112244 204.97114588 -225.45220947 168.14717102 C-225.28092529 167.29091125 -225.10964111 166.43465149 -224.9331665 165.55244446 C-218.05954148 131.65312567 -201.15085276 100.91512771 -178.45220947 75.14717102 C-177.53181885 74.06049133 -177.53181885 74.06049133 -176.59283447 72.95185852 C-167.55803968 62.32521893 -157.57066597 53.49009986 -146.45220947 45.14717102 C-145.50217041 44.42529602 -144.55213135 43.70342102 -143.57330322 42.95967102 C-121.04219016 26.16792446 -95.60480042 14.22519273 -68.45220947 7.14717102 C-67.39888428 6.86897522 -67.39888428 6.86897522 -66.32427979 6.5851593 C-44.47737884 0.89223678 -22.47453376 -0.00333125 0 0 Z " fill="#2C4257" transform="translate(959.4522094726563,704.8528289794922)"/>
<path d="M0 0 C5.97004866 0.01126504 11.94006107 -0.00088318 17.91010737 -0.00984204 C28.88959037 -0.02287643 39.86897292 -0.01807388 50.84845205 -0.00376675 C60.99503694 0.0093674 71.14158887 0.01446526 81.28818202 0.01191509 C81.96538782 0.01175467 82.64259362 0.01159426 83.34032081 0.01142898 C86.09036903 0.01076523 88.84041724 0.01006278 91.59046543 0.00930364 C117.30021402 0.00230567 143.00990471 0.01768403 168.71963856 0.0439271 C191.48972489 0.06704653 214.25974767 0.07242363 237.02984309 0.06219471 C242.86566739 0.05959203 248.7014917 0.05700682 254.53731608 0.05459678 C255.25610033 0.05429933 255.97488457 0.05400189 256.71545015 0.05369543 C275.82709772 0.04605776 294.9387402 0.05251283 314.05038548 0.0632928 C316.10998602 0.06444043 318.16958657 0.06558361 320.22918713 0.06671963 C321.59506349 0.06747486 322.96093984 0.06824051 324.32681619 0.06901663 C334.46212173 0.07464183 344.59741075 0.07336771 354.73271632 0.06878841 C366.27008774 0.06383468 377.80739377 0.06996607 389.34475031 0.08968271 C395.21769557 0.09947591 401.09054181 0.10474722 406.96349216 0.09679019 C430.1490805 0.06867221 453.03414674 0.05175918 476.0166595 3.50823963 C476.79452516 3.6251025 477.57239082 3.74196537 478.37382817 3.86236954 C482.23713711 4.45774055 486.06501739 5.14859003 489.8916595 5.94573963 C491.50923152 6.27203357 491.50923152 6.27203357 493.15948176 6.60491931 C500.16164551 8.04739788 507.09031842 9.59640746 513.89263606 11.81829822 C515.52924971 12.34991548 517.17006691 12.8686039 518.81255794 13.38177478 C567.26656203 28.53392941 610.43097422 53.22840867 647.0166595 88.50823963 C647.60221614 89.07188221 648.18777278 89.63552478 648.79107356 90.21624744 C656.41562864 97.59629514 663.44554135 105.16080787 670.0166595 113.50823963 C671.474603 115.23773499 672.93294583 116.9668938 674.3916595 118.69573963 C693.01063784 141.54190369 707.38347525 168.09573982 718.0166595 195.50823963 C718.48330012 196.66195056 718.94994075 197.8156615 719.430722 199.00433338 C725.70235475 214.78686069 729.75182357 231.0652119 732.7666595 247.75823963 C732.96525569 248.85684314 733.16385188 249.95544666 733.36846614 251.08734119 C736.19038052 267.47982372 737.3978644 283.57235402 737.3291595 300.19573963 C737.32733668 301.11710712 737.32551387 302.03847461 737.32363582 302.98776233 C737.27689112 317.05547859 736.55137148 330.64873587 734.0166595 344.50823963 C733.63642347 346.76713077 733.25759894 349.02625982 732.87994075 351.28558338 C730.70254692 363.97305609 728.10983715 376.30337049 724.0166595 388.50823963 C723.59344417 389.80592273 723.59344417 389.80592273 723.16167903 391.12982166 C718.62296947 405.00544247 713.39450032 418.37526271 707.0166595 431.50823963 C706.61640559 432.34000721 706.21615169 433.17177478 705.80376887 434.02874744 C696.26603472 453.63742766 684.2970434 472.18647076 670.32330012 488.9413451 C668.98354064 490.54795503 667.6645923 492.17037608 666.3447845 493.79339588 C654.67507393 507.94463186 641.5947836 521.35322184 627.0166595 532.50823963 C625.47469567 533.77871239 623.93303598 535.04955435 622.3916595 536.32073963 C610.61575246 545.68921083 598.15857589 554.1800006 585.0166595 561.50823963 C584.19488215 561.96698474 583.37310481 562.42572986 582.52642512 562.89837635 C550.3329219 580.67749056 514.68585193 593.31568691 478.0166595 597.50823963 C477.97202571 598.16090808 477.92739192 598.81357654 477.88140559 599.48602283 C474.24348355 645.91264199 452.14919652 693.39930874 425.0166595 730.50823963 C424.60738215 731.06914295 424.19810481 731.63004627 423.77642512 732.20794666 C420.94849214 736.05024691 418.0213692 739.80280058 415.0166595 743.50823963 C414.5722552 744.05705799 414.1278509 744.60587635 413.66997981 745.17132556 C406.5526716 753.86251019 398.80717007 761.9216541 390.8916595 769.88323963 C389.98577083 770.79839344 389.07988215 771.71354724 388.14654231 772.65643299 C382.07815415 778.69683853 375.74386261 784.21470276 369.0166595 789.50823963 C368.33716243 790.04706775 367.65766536 790.58589588 366.95757747 791.14105213 C340.69878372 811.74271743 310.84113907 828.33804089 279.118222 838.78851306 C276.64350869 839.63603338 274.20317482 840.56365842 271.75494075 841.48480213 C266.05054407 843.56598385 260.29752365 845.11340398 254.3916595 846.50823963 C252.78726008 846.88952014 252.78726008 846.88952014 251.15044856 847.2785033 C243.39812849 849.06945899 235.62103826 850.55409708 227.7666595 851.82073963 C226.28818538 852.05953846 226.28818538 852.05953846 224.77984309 852.3031615 C210.67959786 854.45601549 196.68751378 854.65415898 182.46087337 854.6419524 C180.38572039 854.64382302 178.31056777 854.64612472 176.2354157 854.64881772 C170.55893291 854.65491117 164.8824649 854.65480502 159.20597959 854.65362334 C153.07350415 854.65341871 146.94103338 854.65894407 140.80856013 854.66368091 C128.80297589 854.67197477 116.79739789 854.67474818 104.79181153 854.67529329 C95.0282846 854.67575369 85.26475927 854.67781651 75.50123286 854.68099391 C72.68581414 854.68189153 69.87039542 854.68278134 67.0549767 854.68366879 C66.00494048 854.68400036 66.00494048 854.68400036 64.93369141 854.68433864 C45.25469018 854.69048912 25.5756895 854.69443958 5.89668727 854.69399536 C5.15541349 854.69397978 4.41413972 854.6939642 3.6504031 854.69394815 C-0.10624978 854.69386505 -3.86290266 854.69376601 -7.61955553 854.69366344 C-8.73857958 854.69363352 -8.73857958 854.69363352 -9.88021017 854.693603 C-11.38883599 854.69356256 -12.89746181 854.69352077 -14.40608763 854.69347761 C-37.86446198 854.6928652 -61.32282186 854.70036654 -84.78119206 854.71405017 C-111.16865864 854.72943624 -137.55611572 854.73801486 -163.94358706 854.73708695 C-166.76152062 854.73701233 -169.57945418 854.73696362 -172.39738774 854.73693264 C-173.0911752 854.73692098 -173.78496265 854.73690933 -174.49977397 854.73689732 C-185.62780967 854.73686664 -196.75583273 854.74323176 -207.88386468 854.7518649 C-219.08360077 854.76037347 -230.28331876 854.76113595 -241.48305792 854.75475558 C-247.54131361 854.75150115 -253.59952386 854.75139456 -259.65777516 854.76010883 C-265.21705347 854.7680227 -270.77625068 854.76649298 -276.33552712 854.7578247 C-278.33348047 854.75630039 -280.33144003 854.7580649 -282.32938606 854.76368477 C-299.25468187 854.80809251 -316.20116499 853.96680795 -332.8583405 850.75823963 C-333.75214421 850.58977527 -334.64594792 850.42131092 -335.5668366 850.24774158 C-383.56398087 840.87623446 -429.75880721 820.22297536 -467.4208405 788.81048572 C-469.01361801 787.48300521 -470.62295852 786.17755984 -472.2333405 784.87152088 C-486.74201825 772.93078813 -500.5889175 759.46902731 -511.9833405 744.50823963 C-512.82929798 743.46023728 -513.6784652 742.41482064 -514.5302155 741.37152088 C-539.89603705 710.10466996 -559.03162597 672.51728098 -568.9833405 633.50823963 C-569.17492742 632.79007068 -569.36651433 632.07190174 -569.56390691 631.3319701 C-572.48381166 620.33737939 -574.61706545 609.33209101 -576.2333405 598.07073963 C-576.39640691 596.93491443 -576.55947331 595.79908924 -576.72748113 594.6288451 C-587.01419405 519.17471148 -567.88882821 440.00776264 -522.07294011 378.79779041 C-504.29503722 355.50550623 -484.48907995 334.10296811 -460.9833405 316.50823963 C-459.97859685 315.75075428 -459.97859685 315.75075428 -458.95355535 314.97796619 C-422.74249616 287.80504022 -381.19486049 267.35948126 -336.2958405 259.69573963 C-335.57807439 259.57182849 -334.86030828 259.44791736 -334.12079167 259.32025135 C-329.35941057 258.56373379 -324.80366029 258.40544942 -319.9833405 258.50823963 C-319.91203923 257.51292224 -319.91203923 257.51292224 -319.83929753 256.49749744 C-317.14938899 222.91189979 -304.79128521 190.01737171 -288.9833405 160.50823963 C-288.5914655 159.77379627 -288.1995905 159.03935291 -287.7958405 158.28265369 C-270.45895044 125.97915151 -246.64130594 94.58086813 -217.71380925 71.69183338 C-215.93239636 70.26721276 -214.18247014 68.8020289 -212.47162175 67.29339588 C-179.40073537 38.27791746 -137.08474769 19.76993291 -94.9833405 8.50823963 C-94.22585515 8.30215076 -93.4683698 8.09606189 -92.68793035 7.88372791 C-62.35172223 -0.19604839 -31.13242016 -0.0820275 0 0 Z M-171.43841863 154.01019275 C-172.71525714 155.24829028 -174.01096476 156.46689581 -175.3114655 157.68011463 C-181.09276756 163.17940195 -185.88101668 169.47900741 -190.69769597 175.81683338 C-191.82773723 177.30352647 -192.96910588 178.78159527 -194.11224675 180.25823963 C-203.89240315 193.21941659 -211.61753663 207.60229004 -217.9833405 222.50823963 C-218.44136052 223.57751697 -218.44136052 223.57751697 -218.90863347 224.66839588 C-228.74228006 248.14734277 -233.43548626 274.18085808 -233.4208405 299.57073963 C-233.42144475 300.662495 -233.42144475 300.662495 -233.4220612 301.77630603 C-233.2395201 359.82437871 -207.90783092 412.05988489 -167.37836003 452.4816283 C-140.7200169 478.50027564 -106.14998968 496.17885289 -69.9833405 504.50823963 C-68.9331574 504.75380603 -68.9331574 504.75380603 -67.86175847 505.00433338 C-60.0001665 506.87535016 -60.0001665 506.87535016 -51.9833405 507.50823963 C-51.97454114 506.07123958 -51.97454114 506.07123958 -51.96556401 504.60520923 C-51.90839624 495.58498175 -51.83566608 486.56499673 -51.74762559 477.54501617 C-51.7028631 472.90753079 -51.6636201 468.27013445 -51.63690495 463.63250721 C-51.6109304 459.15844924 -51.57056997 454.68473287 -51.52015424 450.21088588 C-51.50344581 448.50247237 -51.49195635 446.79399972 -51.48572659 445.08551586 C-51.47612843 442.69570308 -51.44812224 440.30677211 -51.41571355 437.91717517 C-51.41714864 437.20795413 -51.41858373 436.4987331 -51.4200623 435.76802051 C-51.36478313 432.89337022 -51.28190523 430.94530777 -49.63592839 428.53576648 C-47.9833405 427.50823963 -47.9833405 427.50823963 -45.1095612 427.65887439 C-42.03998143 428.49285081 -39.71044313 429.51219572 -36.96380925 431.09808338 C-36.03334783 431.62966053 -35.1028864 432.16123767 -34.14422917 432.70892322 C-33.16301091 433.28207263 -32.18179265 433.85522205 -31.1708405 434.44573963 C-29.62843694 435.33253406 -29.62843694 435.33253406 -28.0548737 436.23724353 C-25.02466941 437.98355898 -22.00243218 439.74279475 -18.9833405 441.50823963 C-18.2202155 441.95409412 -17.4570905 442.39994861 -16.6708405 442.85931385 C-14.00385225 444.42073949 -11.33996622 445.98724655 -8.68036199 447.56121814 C5.669693 456.05176579 20.15575476 464.31473344 34.6416595 472.57073963 C43.0359382 477.35588789 51.38705489 482.21237092 59.72857356 487.08880603 C70.3649426 493.30382908 81.03771768 499.45513872 91.71246028 505.60394275 C95.04280202 507.52330625 98.37175098 509.44506316 101.70025325 511.36761463 C112.50146252 517.60566985 123.31025661 523.82904696 134.1506927 529.99871814 C138.94457231 532.73312153 143.71838824 535.49903032 148.477597 538.29339588 C149.56604915 538.93204578 150.6545013 539.57069568 151.77593684 540.22869861 C153.89008928 541.47116533 156.00248174 542.71663309 158.1128509 543.96551502 C159.55023616 544.81037464 159.55023616 544.81037464 161.0166595 545.67230213 C161.8622845 546.17197498 162.7079095 546.67164783 163.5791595 547.18646228 C166.00483318 548.5018266 168.43600218 549.53761293 171.0166595 550.50823963 C171.50967263 556.91741033 171.50967263 556.91741033 169.30254817 559.56243885 C167.01761988 561.50742212 164.81736743 562.94388293 162.19244075 564.39105213 C161.25569514 564.91288074 160.31894954 565.43470935 159.3538177 565.97235096 C157.85661189 566.79449085 157.85661189 566.79449085 156.3291595 567.63323963 C154.2243345 568.80523518 152.12017114 569.97841974 150.0166595 571.15277088 C148.9854095 571.72720935 147.9541595 572.30164783 146.8916595 572.89349353 C143.17173826 574.98279033 139.49533252 577.1389264 135.8291595 579.32073963 C128.31420823 583.7790457 120.73208656 588.11767197 113.1416595 592.44573963 C103.7143937 597.82190513 94.3016789 603.22142298 84.915097 608.66839588 C78.95549961 612.12635701 72.9856135 615.56646373 67.0166595 619.00823963 C48.23467359 629.83320944 48.23467359 629.83320944 29.49712825 640.73480213 C17.5801279 647.70531103 5.63516816 654.62354864 -6.37030339 661.44061267 C-12.38767144 664.86072393 -18.37664677 668.32046979 -24.3270905 671.85589588 C-26.10121455 672.90342283 -27.87593879 673.94992488 -29.65088201 674.99606311 C-31.31786039 675.98424313 -32.97665066 676.98619475 -34.63519597 677.98846424 C-35.64469304 678.58280262 -36.65419011 679.17714099 -37.694278 679.78948963 C-39.01371404 680.57936267 -39.01371404 680.57936267 -40.35980535 681.38519275 C-43.48018943 682.72092389 -45.6229843 682.9380458 -48.9833405 682.50823963 C-51.45483068 678.80100436 -51.28992194 675.93298007 -51.30218816 671.64031971 C-51.31223378 670.84008884 -51.32227941 670.03985797 -51.33262944 669.21537769 C-51.36352787 666.56951608 -51.38051498 663.92375596 -51.397403 661.27777088 C-51.4161093 659.44358939 -51.43568231 657.60941655 -51.4560883 655.77525318 C-51.50747236 650.94694096 -51.54706448 646.11860082 -51.58423162 641.29016101 C-51.62423197 636.36343431 -51.67534239 631.43682437 -51.725528 626.51019275 C-51.82236156 616.842957 -51.90674254 607.17565541 -51.9833405 597.50823963 C-52.55471053 597.4239272 -53.12608056 597.33961477 -53.71476483 597.25274742 C-56.33395965 596.86543951 -58.95283946 596.47603979 -61.57171941 596.08660877 C-62.47044271 595.95402919 -63.369166 595.82144962 -64.29512334 595.68485248 C-134.53863858 585.21666796 -206.9599031 547.43726679 -251.7020905 491.35198963 C-254.07380935 488.39546339 -256.52426577 485.51733962 -258.9833405 482.63323963 C-264.0700851 476.52600614 -268.61599059 470.13728646 -272.9833405 463.50823963 C-273.35894109 462.94781971 -273.73454167 462.38739978 -274.1215241 461.80999744 C-286.36443935 443.45338962 -296.58046847 423.4449317 -304.16595769 402.73138416 C-304.94816824 400.60390228 -305.76269857 398.49161813 -306.584903 396.37933338 C-312.34700015 381.23106407 -315.49645643 365.29790335 -318.9833405 349.50823963 C-371.55890128 357.98816879 -418.95569603 390.74310416 -449.97211003 433.35809314 C-465.11546372 454.55921 -476.25760444 478.24441372 -482.7333405 503.50823963 C-482.9199323 504.22938953 -483.1065241 504.95053943 -483.29877019 505.69354236 C-487.14228021 521.60753693 -488.5339251 537.29633294 -488.4208405 553.63323963 C-488.41779912 554.57056934 -488.41475774 555.50789905 -488.41162419 556.47363269 C-488.3034113 579.09685966 -485.02460702 599.96924077 -477.9833405 621.50823963 C-477.60701482 622.68579822 -477.60701482 622.68579822 -477.2230866 623.88714588 C-471.28783086 642.17765743 -462.4262548 660.02532206 -450.9833405 675.50823963 C-450.21634831 676.5575365 -449.44935613 677.60683338 -448.65912175 678.68792713 C-442.91283355 686.41888169 -436.64639696 693.5601917 -429.9833405 700.50823963 C-429.22730535 701.30512195 -429.22730535 701.30512195 -428.45599675 702.11810291 C-395.52307621 736.68329725 -350.31946378 758.23576004 -302.9833405 763.50823963 C-302.19313994 763.5962958 -301.40293937 763.68435197 -300.58879334 763.77507651 C-290.78745231 764.72499568 -281.00487307 764.65377641 -271.16868901 764.64868152 C-269.16182113 764.65126883 -267.15495375 764.654283 -265.14808708 764.65768492 C-259.6556328 764.66571527 -254.1631916 764.66754227 -248.67073214 764.66828239 C-242.73792884 764.67013989 -236.80513222 764.67769073 -230.87233281 764.68441761 C-217.23367178 764.69867976 -203.59501179 764.70452392 -189.95634485 764.70910955 C-183.20699742 764.71145043 -176.45765083 764.71505363 -169.70830405 764.71880493 C-146.57471933 764.73163664 -123.44113506 764.7423558 -100.30754685 764.74580753 C-98.85705502 764.74602916 -97.4065632 764.74625094 -95.95607137 764.74647288 C-94.50221091 764.74669352 -93.04835045 764.746914 -91.59448999 764.74713433 C-88.67812701 764.74757686 -85.76176403 764.74802398 -82.84540105 764.748474 C-81.76077934 764.74863809 -81.76077934 764.74863809 -80.65424608 764.74880549 C-57.22631031 764.75243337 -33.79840554 764.76834519 -10.37048164 764.79166437 C14.43720928 764.81631146 39.24488251 764.82998264 64.05258602 764.83117545 C66.7806993 764.83134688 69.50881257 764.8315623 72.23692584 764.83180988 C72.90859454 764.83186565 73.58026324 764.83192142 74.27228554 764.83197887 C84.37355025 764.83305433 94.47478608 764.84232589 104.57604098 764.85599506 C116.08109033 764.87144778 127.58608654 764.87648612 139.0911443 764.86825696 C144.95321346 764.86436867 150.81517576 764.86519038 156.67723155 764.8793143 C162.05966492 764.89216316 167.44191234 764.89076065 172.82434585 764.87872359 C174.75574475 764.87678542 176.68715733 764.87975621 178.61853711 764.88856795 C196.63710674 764.96547 214.81281002 763.5548658 232.2041595 758.57073963 C233.16499446 758.30624012 234.12582942 758.0417406 235.11578059 757.76922596 C237.75527486 757.03433872 240.3867849 756.27671301 243.0166595 755.50823963 C244.12912044 755.19113025 245.24158137 754.87402088 246.38775325 754.54730213 C289.33103045 741.26838804 327.33154328 712.13842384 353.0166595 675.50823963 C353.48620051 674.85097888 353.95574153 674.19371814 354.43951106 673.51654041 C366.61764963 656.32162149 375.95802246 636.68123919 382.0166595 616.50823963 C382.2337054 615.80698963 382.4507513 615.10573963 382.67437434 614.38323963 C398.4359984 562.65278117 392.38354518 506.0901267 367.4541595 458.25823963 C363.39896571 450.69520884 359.06703806 443.45504548 354.0166595 436.50823963 C352.99185481 435.07544666 352.99185481 435.07544666 351.946347 433.61370838 C340.40996348 417.83904775 327.45059026 403.55734971 312.0166595 391.50823963 C311.09240169 390.77863025 310.16814387 390.04902088 309.21587825 389.29730213 C281.72752268 368.09518755 246.66139824 351.22898993 211.71465755 347.9491576 C210.83013408 347.86487506 209.94561061 347.78059253 209.0342834 347.69375598 C208.36846751 347.63253559 207.70265162 347.57131519 207.0166595 347.50823963 C207.00857265 348.48098835 207.00048579 349.45373706 206.99215388 350.45596302 C206.91477671 359.60889967 206.82705909 368.76168613 206.72913241 377.91442668 C206.67911807 382.62030942 206.63278867 387.32616914 206.5947845 392.03216541 C206.55799637 396.57099056 206.51165445 401.10962551 206.45859599 405.64828861 C206.44001751 407.38265775 206.42492241 409.11706772 206.41331553 410.85149753 C206.39651184 413.2748754 206.36749202 415.69781435 206.33550715 418.1210326 C206.33226687 419.20428318 206.33226687 419.20428318 206.32896113 420.30941761 C206.24476382 425.2801353 206.24476382 425.2801353 204.0166595 427.50823963 C198.35804452 427.29891971 194.38734234 425.33358119 189.7041595 422.38323963 C188.19733907 421.46624287 186.68945531 420.55099194 185.180722 419.63714588 C184.35862239 419.1358617 183.53652278 418.63457752 182.68951106 418.11810291 C177.69637995 415.1107311 172.63329015 412.2239841 167.5791595 409.32073963 C165.33946725 408.0305641 163.09988545 406.74019682 160.8604095 405.44964588 C159.73247981 404.80011951 158.60455012 404.15059314 157.44244075 403.48138416 C151.81984402 400.24294154 146.19945668 397.00067097 140.5791595 393.75823963 C139.48933772 393.12957996 138.39951594 392.50092029 137.27666926 391.85321033 C130.26767249 387.80933385 123.26302534 383.75802854 116.2612884 379.701599 C105.18859541 373.28849803 94.10130441 366.90065068 83.0166595 360.50823963 C57.29521467 345.67492295 57.29521467 345.67492295 45.26568294 338.70379627 C39.73226233 335.49828923 34.19281545 332.30333438 28.6519134 329.11077869 C18.64034585 323.34070257 8.63374738 317.56199068 -1.3583405 311.75823963 C-2.36856267 311.17389148 -3.37878484 310.58954334 -4.4196198 309.98748767 C-5.35588201 309.44261707 -6.29214421 308.89774646 -7.256778 308.33636463 C-8.07581609 307.86102283 -8.89485417 307.38568103 -9.7387116 306.89593494 C-11.92441835 305.54466703 -13.95450357 304.08318895 -15.9833405 302.50823963 C-15.9833405 299.80511463 -15.9833405 299.80511463 -14.9833405 296.50823963 C-12.56985248 294.45708989 -9.81127439 293.15740519 -6.9833405 291.75823963 C-5.31558224 290.88401682 -3.64893808 290.00766579 -1.9833405 289.12933338 C-1.13900456 288.69089099 -0.29466863 288.25244861 0.57525325 287.8007201 C4.12540662 285.9212689 7.57028122 283.88261357 11.0166595 281.82073963 C18.13217342 277.60104496 25.28634393 273.45092313 32.4541595 269.32073963 C34.11414973 268.36421497 34.11414973 268.36421497 35.80767512 267.38836658 C38.078892 266.0799979 40.3502145 264.77181256 42.62163997 263.46380603 C48.08835933 260.31491907 53.55238782 257.16137144 59.0166595 254.00823963 C61.17681039 252.76213659 63.33696665 251.51604286 65.49712825 250.26995838 C69.89625025 247.7320797 74.29460271 245.1928738 78.69244075 242.65277088 C88.66313833 236.89515741 98.63805691 231.1460207 108.6416595 225.44573963 C117.03598263 220.66067066 125.38705596 215.80410771 133.72857356 210.92767322 C141.10291223 206.61871359 148.49223652 202.3364725 155.8916595 198.07073963 C156.9548138 197.45779041 158.01796809 196.84484119 159.11333919 196.21331775 C164.2381138 193.25974395 169.36403803 190.30817145 174.49065852 187.35780323 C176.89883425 185.97164225 179.30656649 184.58471213 181.7142303 183.19766223 C183.41924184 182.21584665 185.1249262 181.23519978 186.83062434 180.25457752 C187.86010188 179.6615282 188.88957942 179.06847888 189.95025325 178.45745838 C190.85831721 177.93498523 191.76638118 177.41251209 192.70196223 176.87420642 C194.5079215 175.80845997 196.27187078 174.6714321 198.0166595 173.50823963 C201.6416595 173.32073963 201.6416595 173.32073963 205.0166595 173.50823963 C207.00229344 175.49387357 206.20147293 179.42967018 206.22198176 182.14910877 C206.23188136 182.94904758 206.24178096 183.74898639 206.25198054 184.57316577 C206.28368868 187.22987854 206.30838957 189.88660923 206.33306575 192.54339588 C206.35362725 194.38043178 206.3746235 196.21746287 206.39603877 198.05448902 C206.45134254 202.89928281 206.50071505 207.74411988 206.54888606 212.58898914 C206.59904061 217.52890888 206.65475816 222.46876546 206.71001887 227.40863025 C206.81770196 237.10844614 206.91912423 246.80831677 207.0166595 256.50823963 C208.02243541 256.66905017 209.02821132 256.82986072 210.06446528 256.99554431 C213.88020673 257.60751239 217.69443228 258.22853913 221.50831294 258.85198963 C223.14336401 259.1180443 224.77879057 259.38180392 226.41462398 259.64300525 C284.25907556 268.8901152 337.11099387 293.72944676 381.0166595 332.50823963 C381.54324153 332.9716576 382.06982356 333.43507556 382.61236262 333.9125365 C396.1451409 345.89965116 408.15576943 359.06969162 419.0166595 373.50823963 C419.46605891 374.0954076 419.91545833 374.68257556 420.3784759 375.2875365 C447.42818517 410.63735166 465.25724887 451.73940412 474.4956634 495.14007556 C475.26046732 498.61645701 476.13269825 502.06039077 477.0166595 505.50823963 C504.65186112 501.25667015 532.29968521 489.7728796 555.0166595 473.50823963 C556.02212825 472.79280994 557.027597 472.07738025 558.0635345 471.34027088 C575.30366605 458.72281709 590.99723391 444.42651348 603.74175715 427.22308338 C604.97536489 425.56378411 606.23396925 423.92634358 607.49712825 422.28948963 C619.57340829 406.3491835 628.28814264 388.26652906 635.0166595 369.50823963 C635.29203547 368.76638416 635.56741145 368.02452869 635.85113215 367.26019275 C643.78934498 345.65141089 646.48233387 323.56987653 646.4541595 300.69573963 C646.45438106 299.85701313 646.45460261 299.01828662 646.45483088 298.15414417 C646.40913734 281.95458911 644.61740857 266.3329909 641.0166595 250.50823963 C640.86390559 249.81988025 640.71115169 249.13152088 640.55376887 248.42230213 C628.7695754 196.40283454 599.0905292 146.8388445 554.0166595 117.50823963 C514.51126548 92.75574293 472.69777167 89.88067288 427.2867229 90.01465905 C421.26624303 90.02796844 415.24579247 90.01788279 409.22530818 90.01089466 C398.81943015 90.00202522 388.41363843 90.00767574 378.00777125 90.02418888 C367.09460088 90.04150204 356.18146929 90.05122722 345.26828456 90.05085361 C344.5858504 90.05083832 343.90341623 90.05082303 343.20030225 90.05080727 C340.42926041 90.05072544 337.65821859 90.05059419 334.88717677 90.05039565 C308.96296627 90.04858886 283.03881451 90.06839174 257.11462438 90.09925498 C234.13729942 90.12650922 211.16001612 90.13897674 188.18267512 90.13763416 C186.70646098 90.13755333 185.23024684 90.13747262 183.7540327 90.137392 C183.02418091 90.1373513 182.29432912 90.1373106 181.5423606 90.13726866 C177.86752745 90.13706704 174.19269429 90.13688588 170.51786113 90.13672817 C169.79269551 90.13669474 169.06752989 90.13666131 168.32038956 90.13662687 C149.0545704 90.13589486 129.78875641 90.14499148 110.52294159 90.1573813 C109.83673816 90.15782184 109.15053473 90.15826238 108.44353726 90.15871628 C105.68487145 90.16049247 102.92620564 90.16226936 100.16753986 90.16409819 C90.61371472 90.17039047 81.05989366 90.1734331 71.50606659 90.17432117 C59.19073529 90.17552064 46.8754358 90.18383649 34.56011841 90.20318408 C28.6311399 90.21236175 22.70220305 90.2185328 16.77321696 90.21599567 C11.3303432 90.21377962 5.88756105 90.22099783 0.44470635 90.23529272 C-1.50844623 90.23887095 -3.46160844 90.23922834 -5.41476122 90.23575814 C-68.27863814 90.13656064 -125.88809828 109.70074378 -171.43841863 154.01019275 Z " fill="#E1E5E6" transform="translate(962.9833405017853,614.4917603731155)"/>
</svg>
