<?xml version="1.0" encoding="utf-8"?>
<svg xmlns="http://www.w3.org/2000/svg" viewBox="15.7299 112.4486 459.0122 297.9637"  width="459.012px" height="297.964px" preserveAspectRatio="none"><path d="M 217.718 112.454 C 219.798 112.458 221.88 112.454 223.96 112.452 C 227.8 112.449 231.621 112.449 235.442 112.454 C 238.975 112.458 242.528 112.458 246.061 112.458 C 246.294 112.458 246.528 112.458 246.779 112.458 C 247.73 112.458 248.68 112.458 249.649 112.458 C 258.618 112.454 267.569 112.462 276.54 112.469 C 284.468 112.479 292.416 112.479 300.344 112.477 C 302.371 112.477 304.416 112.477 306.443 112.473 C 306.694 112.473 306.945 112.473 307.198 112.473 C 313.87 112.469 320.525 112.473 327.199 112.477 C 327.916 112.477 328.634 112.477 329.352 112.479 C 329.818 112.479 330.302 112.479 330.768 112.479 C 334.302 112.479 337.837 112.479 341.371 112.479 C 345.389 112.477 349.425 112.479 353.438 112.487 C 355.486 112.491 357.533 112.491 359.58 112.491 C 367.662 112.479 375.64 112.473 383.65 113.679 C 383.922 113.718 384.194 113.759 384.473 113.8 C 385.82 114.01 387.154 114.251 388.487 114.527 C 389.052 114.642 389.052 114.642 389.627 114.756 C 392.067 115.262 394.482 115.802 396.854 116.575 C 397.424 116.76 397.996 116.941 398.568 117.119 C 415.459 122.4 430.506 131.011 443.258 143.307 C 443.462 143.503 443.667 143.701 443.877 143.903 C 446.536 146.476 448.986 149.114 451.277 152.023 C 451.785 152.625 452.292 153.228 452.802 153.831 C 459.292 161.794 464.303 171.05 468.006 180.606 C 468.171 181.009 468.335 181.41 468.501 181.825 C 470.689 187.326 472.098 193 473.148 198.819 C 473.218 199.202 473.288 199.585 473.362 199.98 C 474.345 205.694 474.766 211.303 474.741 217.097 C 474.741 217.42 474.737 217.742 474.737 218.072 C 474.721 222.976 474.47 227.714 473.584 232.545 C 473.452 233.332 473.32 234.121 473.192 234.908 C 472.431 239.33 471.529 243.628 470.098 247.883 C 469.952 248.335 469.952 248.335 469.802 248.796 C 468.22 253.634 466.396 258.295 464.173 262.873 C 464.035 263.162 463.895 263.452 463.752 263.749 C 460.425 270.586 456.255 277.051 451.383 282.893 C 450.917 283.453 450.457 284.017 449.996 284.585 C 445.93 289.518 441.369 294.191 436.287 298.079 C 435.75 298.523 435.213 298.965 434.674 299.408 C 430.57 302.674 426.229 305.634 421.647 308.188 C 421.361 308.348 421.073 308.508 420.778 308.673 C 409.556 314.87 397.13 319.276 384.349 320.737 C 384.333 320.964 384.318 321.192 384.301 321.427 C 383.033 337.609 375.332 354.161 365.873 367.098 C 365.731 367.294 365.589 367.489 365.441 367.691 C 364.455 369.029 363.436 370.338 362.387 371.628 C 362.234 371.821 362.077 372.013 361.918 372.211 C 359.436 375.241 356.737 378.05 353.978 380.825 C 353.662 381.143 353.346 381.462 353.022 381.792 C 350.914 383.896 348.689 385.819 346.357 387.665 C 346.106 387.853 345.874 388.039 345.64 388.233 C 336.491 395.415 326.069 401.199 315.018 404.843 C 314.157 405.139 313.296 405.461 312.453 405.783 C 310.461 406.507 308.452 407.047 306.389 407.533 C 305.833 407.667 305.833 407.667 305.26 407.803 C 302.568 408.428 299.859 408.944 297.115 409.385 C 296.594 409.47 296.594 409.47 296.075 409.554 C 291.159 410.306 286.281 410.373 281.329 410.37 C 280.593 410.37 279.876 410.37 279.159 410.372 C 277.167 410.373 275.194 410.373 273.221 410.373 C 271.086 410.373 268.934 410.376 266.798 410.377 C 262.619 410.378 258.439 410.381 254.241 410.381 C 250.851 410.381 247.442 410.382 244.034 410.382 C 243.048 410.382 242.078 410.384 241.092 410.384 C 240.733 410.384 240.733 410.384 240.356 410.384 C 233.504 410.386 226.633 410.388 219.78 410.388 C 219.512 410.388 219.261 410.388 218.991 410.388 C 217.681 410.388 216.372 410.388 215.062 410.388 C 214.669 410.388 214.669 410.388 214.274 410.388 C 213.753 410.388 213.214 410.388 212.695 410.388 C 204.515 410.388 196.352 410.389 188.173 410.396 C 178.97 410.401 169.766 410.402 160.565 410.402 C 159.595 410.402 158.609 410.402 157.622 410.402 C 157.39 410.402 157.137 410.402 156.886 410.402 C 153.013 410.402 149.137 410.403 145.262 410.407 C 141.351 410.411 137.441 410.411 133.548 410.409 C 131.431 410.407 129.315 410.407 127.215 410.411 C 125.261 410.413 123.342 410.413 121.404 410.409 C 120.704 410.409 120.004 410.409 119.305 410.411 C 113.403 410.427 107.502 410.133 101.689 409.015 C 101.384 408.956 101.061 408.896 100.756 408.838 C 84.018 405.571 67.91 398.37 54.779 387.422 C 54.222 386.96 53.666 386.504 53.11 386.049 C 48.051 381.887 43.226 377.194 39.243 371.978 C 38.956 371.613 38.67 371.248 38.365 370.885 C 29.521 359.987 22.847 346.884 19.385 333.287 C 19.314 333.036 19.241 332.786 19.187 332.527 C 18.165 328.694 17.412 324.859 16.856 320.933 C 16.802 320.537 16.748 320.141 16.676 319.734 C 13.088 293.431 19.762 265.834 35.727 244.498 C 41.935 236.379 48.841 228.918 57.021 222.785 C 57.38 222.52 57.38 222.52 57.739 222.252 C 70.367 212.78 84.844 205.653 100.487 202.982 C 100.738 202.937 100.989 202.894 101.258 202.849 C 102.909 202.587 104.505 202.532 106.173 202.568 C 106.21 202.219 106.21 202.219 106.227 201.866 C 107.159 190.159 111.465 178.692 116.991 168.406 C 117.117 168.15 117.259 167.894 117.403 167.629 C 123.448 156.37 131.755 145.425 141.836 137.446 C 142.446 136.949 143.055 136.439 143.648 135.914 C 155.183 125.799 169.929 119.347 184.603 115.422 C 184.872 115.348 185.14 115.275 185.41 115.203 C 195.994 112.387 206.864 112.428 217.718 112.454 Z M 157.963 166.141 C 157.515 166.573 157.066 166.997 156.6 167.419 C 154.591 169.337 152.923 171.534 151.236 173.742 C 150.86 174.26 150.446 174.776 150.053 175.29 C 146.644 179.808 143.953 184.822 141.728 190.018 C 141.567 190.39 141.567 190.39 141.406 190.771 C 137.98 198.954 136.347 208.03 136.347 216.881 C 136.347 217.261 136.347 217.261 136.347 217.648 C 136.418 237.884 145.244 256.092 159.38 270.183 C 168.673 279.253 180.709 285.414 193.321 288.318 C 193.697 288.403 193.697 288.403 194.057 288.491 C 196.801 289.144 196.801 289.144 199.6 289.364 C 199.6 288.863 199.6 288.863 199.6 288.353 C 199.617 285.208 199.653 282.063 199.688 278.918 C 199.707 277.303 199.707 275.687 199.725 274.07 C 199.725 272.511 199.743 270.95 199.761 269.392 C 199.761 268.796 199.761 268.2 199.778 267.605 C 199.778 266.773 199.778 265.938 199.797 265.106 C 199.797 264.859 199.797 264.611 199.797 264.356 C 199.815 263.355 199.851 262.676 200.424 261.836 C 200.999 261.476 200.999 261.476 202.004 261.531 C 203.062 261.821 203.869 262.176 204.838 262.729 C 205.16 262.913 205.483 263.098 205.825 263.291 C 206.165 263.489 206.506 263.69 206.847 263.895 C 207.385 264.205 207.385 264.205 207.941 264.519 C 209 265.13 210.058 265.743 211.099 266.358 C 211.367 266.513 211.636 266.668 211.906 266.828 C 212.838 267.374 213.77 267.919 214.686 268.467 C 219.691 271.427 224.75 274.306 229.79 277.186 C 232.714 278.854 235.638 280.546 238.544 282.247 C 242.24 284.414 245.971 286.558 249.685 288.701 C 250.851 289.37 252.017 290.039 253.165 290.71 C 256.932 292.884 260.699 295.053 264.484 297.205 C 266.152 298.157 267.822 299.122 269.471 300.096 C 269.848 300.319 270.242 300.541 270.619 300.771 C 271.355 301.202 272.09 301.637 272.826 302.073 C 273.328 302.367 273.328 302.367 273.848 302.669 C 274.136 302.843 274.44 303.016 274.745 303.196 C 275.589 303.652 276.432 304.016 277.328 304.353 C 277.508 306.587 277.508 306.587 276.737 307.51 C 275.947 308.188 275.176 308.689 274.262 309.193 C 273.938 309.374 273.597 309.556 273.275 309.744 C 272.755 310.03 272.755 310.03 272.216 310.322 C 271.48 310.732 270.744 311.141 270.01 311.549 C 269.651 311.749 269.292 311.95 268.934 312.156 C 267.623 312.885 266.35 313.636 265.077 314.397 C 262.439 315.95 259.802 317.464 257.166 318.973 C 253.865 320.846 250.6 322.727 247.317 324.628 C 245.236 325.832 243.155 327.031 241.075 328.231 C 234.526 332.004 234.526 332.004 227.996 335.805 C 223.853 338.234 219.691 340.647 215.493 343.022 C 213.394 344.215 211.314 345.42 209.232 346.653 C 208.622 347.019 207.995 347.383 207.385 347.746 C 206.811 348.091 206.218 348.441 205.645 348.791 C 205.304 348.997 204.945 349.206 204.586 349.418 C 204.12 349.693 204.12 349.693 203.653 349.974 C 202.56 350.439 201.824 350.517 200.639 350.365 C 199.778 349.075 199.832 348.074 199.832 346.577 C 199.832 346.299 199.832 346.02 199.832 345.732 C 199.815 344.81 199.815 343.888 199.797 342.966 C 199.797 342.326 199.797 341.687 199.778 341.047 C 199.761 339.365 199.761 337.682 199.743 335.998 C 199.725 334.282 199.707 332.564 199.688 330.847 C 199.653 327.476 199.617 324.107 199.6 320.737 C 199.402 320.708 199.205 320.679 198.99 320.648 C 198.074 320.512 197.178 320.377 196.262 320.241 C 195.94 320.195 195.635 320.15 195.311 320.101 C 170.826 316.452 145.567 303.284 129.978 283.731 C 129.153 282.702 128.292 281.697 127.449 280.694 C 125.673 278.563 124.077 276.338 122.57 274.026 C 122.426 273.831 122.301 273.635 122.175 273.435 C 117.905 267.036 114.335 260.062 111.699 252.841 C 111.411 252.099 111.143 251.363 110.855 250.625 C 108.846 245.346 107.734 239.792 106.532 234.288 C 88.199 237.243 71.677 248.661 60.86 263.517 C 55.586 270.908 51.711 279.163 49.451 287.97 C 49.379 288.221 49.326 288.473 49.253 288.732 C 47.909 294.28 47.424 299.748 47.459 305.443 C 47.459 305.77 47.459 306.096 47.459 306.434 C 47.495 314.319 48.643 321.594 51.101 329.104 C 51.226 329.514 51.226 329.514 51.37 329.932 C 53.433 336.307 56.519 342.528 60.519 347.926 C 60.789 348.292 61.057 348.658 61.326 349.035 C 63.335 351.73 65.506 354.219 67.838 356.642 C 68.089 356.919 68.089 356.919 68.376 357.203 C 79.839 369.25 95.608 376.764 112.111 378.602 C 112.38 378.632 112.65 378.663 112.937 378.695 C 116.363 379.025 119.771 379 123.198 378.998 C 123.898 379 124.596 379 125.296 379.002 C 127.215 379.005 129.117 379.005 131.036 379.005 C 133.099 379.008 135.181 379.009 137.244 379.011 C 141.997 379.017 146.751 379.018 151.506 379.019 C 153.855 379.022 156.205 379.022 158.554 379.023 C 166.627 379.029 174.682 379.033 182.755 379.033 C 183.257 379.033 183.759 379.033 184.279 379.034 C 184.782 379.034 185.284 379.034 185.786 379.034 C 186.808 379.034 187.832 379.034 188.836 379.034 C 189.212 379.034 189.212 379.034 189.607 379.034 C 197.769 379.037 205.932 379.042 214.113 379.048 C 222.758 379.058 231.405 379.063 240.051 379.063 C 241.002 379.063 241.953 379.063 242.904 379.063 C 243.136 379.063 243.37 379.063 243.604 379.063 C 247.137 379.063 250.653 379.067 254.17 379.072 C 258.188 379.078 262.188 379.079 266.206 379.075 C 268.252 379.074 270.297 379.074 272.341 379.079 C 274.207 379.084 276.091 379.084 277.957 379.079 C 278.639 379.079 279.32 379.079 279.983 379.083 C 286.262 379.109 292.595 378.618 298.657 376.88 C 298.998 376.789 299.34 376.696 299.681 376.601 C 300.595 376.345 301.51 376.082 302.426 375.813 C 302.819 375.703 303.214 375.592 303.609 375.478 C 318.571 370.849 331.827 360.695 340.778 347.926 C 340.94 347.696 341.102 347.469 341.263 347.233 C 345.514 341.239 348.779 334.392 350.878 327.359 C 350.968 327.116 351.039 326.872 351.112 326.618 C 356.607 308.587 354.498 288.869 345.801 272.197 C 344.402 269.56 342.877 267.036 341.119 264.615 C 340.761 264.115 340.761 264.115 340.402 263.607 C 336.384 258.106 331.863 253.128 326.481 248.929 C 326.158 248.674 325.835 248.419 325.513 248.158 C 315.933 240.767 303.699 234.888 291.519 233.746 C 291.214 233.715 290.909 233.686 290.585 233.656 C 290.352 233.633 290.119 233.612 289.886 233.591 C 289.886 233.931 289.868 234.269 289.868 234.619 C 289.851 237.808 289.814 240.999 289.778 244.192 C 289.761 245.831 289.742 247.47 289.742 249.111 C 289.724 250.694 289.707 252.276 289.688 253.858 C 289.688 254.463 289.671 255.067 289.671 255.672 C 289.671 256.517 289.652 257.36 289.652 258.205 C 289.635 258.584 289.635 258.584 289.635 258.97 C 289.617 260.7 289.617 260.7 288.845 261.476 C 286.872 261.405 285.472 260.72 283.84 259.691 C 283.321 259.371 282.8 259.052 282.28 258.735 C 281.993 258.559 281.688 258.385 281.4 258.205 C 279.661 257.155 277.903 256.148 276.126 255.137 C 275.355 254.689 274.565 254.239 273.794 253.788 C 273.4 253.562 273.006 253.337 272.592 253.101 C 270.637 251.974 268.683 250.843 266.727 249.712 C 266.35 249.493 265.974 249.275 265.579 249.049 C 263.121 247.639 260.681 246.227 258.242 244.814 C 254.385 242.579 250.527 240.351 246.654 238.123 C 237.701 232.952 237.701 232.952 233.504 230.522 C 231.566 229.404 229.647 228.29 227.71 227.177 C 224.211 225.167 220.731 223.152 217.251 221.128 C 216.893 220.926 216.533 220.722 216.174 220.512 C 215.852 220.321 215.53 220.131 215.188 219.936 C 214.901 219.771 214.614 219.606 214.328 219.434 C 213.555 218.964 212.856 218.454 212.156 217.906 C 212.156 216.961 212.156 216.961 212.497 215.814 C 213.34 215.098 214.291 214.646 215.277 214.157 C 215.87 213.852 216.444 213.547 217.035 213.241 C 217.323 213.089 217.61 212.936 217.915 212.778 C 219.153 212.123 220.354 211.411 221.556 210.694 C 224.031 209.223 226.525 207.775 229.037 206.336 C 229.612 206.003 229.612 206.003 230.203 205.662 C 230.992 205.207 231.782 204.751 232.572 204.295 C 234.491 203.198 236.393 202.097 238.293 200.997 C 239.047 200.564 239.8 200.129 240.554 199.695 C 242.078 198.811 243.621 197.925 245.147 197.04 C 248.627 195.033 252.107 193.029 255.587 191.041 C 258.51 189.373 261.434 187.681 264.341 185.981 C 266.906 184.48 269.49 182.987 272.055 181.5 C 272.431 181.286 272.807 181.073 273.185 180.853 C 274.96 179.823 276.755 178.792 278.549 177.765 C 279.391 177.283 280.217 176.798 281.06 176.316 C 281.651 175.973 282.244 175.631 282.853 175.29 C 283.195 175.084 283.572 174.875 283.93 174.664 C 284.253 174.48 284.575 174.299 284.899 174.11 C 285.526 173.739 286.137 173.343 286.747 172.938 C 288.003 172.871 288.003 172.871 289.186 172.938 C 289.868 173.63 289.598 175.002 289.598 175.95 C 289.617 176.228 289.617 176.508 289.617 176.794 C 289.635 177.72 289.635 178.646 289.635 179.573 C 289.652 180.214 289.652 180.854 289.671 181.495 C 289.688 183.183 289.707 184.871 289.724 186.56 C 289.742 188.282 289.761 190.004 289.778 191.727 C 289.814 195.108 289.851 198.488 289.886 201.869 C 290.227 201.926 290.585 201.983 290.944 202.039 C 292.272 202.253 293.599 202.469 294.926 202.688 C 295.501 202.779 296.075 202.873 296.649 202.963 C 316.813 206.185 335.235 214.844 350.537 228.362 C 350.717 228.523 350.896 228.684 351.093 228.851 C 355.81 233.03 359.997 237.622 363.782 242.654 C 363.938 242.858 364.095 243.062 364.257 243.275 C 373.686 255.596 379.902 269.924 383.122 285.052 C 383.387 286.265 383.692 287.465 384 288.667 C 393.634 287.185 403.27 283.181 411.188 277.512 C 411.541 277.264 411.891 277.014 412.251 276.758 C 418.261 272.358 423.731 267.375 428.173 261.379 C 428.604 260.8 429.044 260.228 429.483 259.658 C 433.693 254.103 436.73 247.799 439.076 241.259 C 439.171 241.002 439.269 240.743 439.367 240.476 C 442.134 232.944 443.073 225.245 443.062 217.273 C 443.062 216.981 443.062 216.687 443.062 216.388 C 443.048 210.741 442.422 205.294 441.168 199.778 C 441.114 199.538 441.061 199.299 441.007 199.052 C 436.898 180.919 426.554 163.642 410.841 153.417 C 397.07 144.788 382.493 143.787 366.664 143.833 C 364.565 143.837 362.466 143.833 360.369 143.832 C 356.742 143.828 353.115 143.83 349.479 143.836 C 345.675 143.842 341.873 143.846 338.069 143.846 C 337.837 143.846 337.603 143.846 337.352 143.846 C 336.384 143.846 335.414 143.846 334.463 143.846 C 325.423 143.845 316.382 143.852 307.34 143.862 C 299.34 143.871 291.321 143.877 283.321 143.877 C 282.8 143.877 282.28 143.877 281.778 143.877 C 281.526 143.875 281.258 143.875 281.007 143.875 C 279.715 143.875 278.44 143.875 277.167 143.875 C 276.898 143.875 276.647 143.875 276.396 143.875 C 269.669 143.875 262.96 143.878 256.25 143.882 C 255.999 143.882 255.766 143.882 255.515 143.883 C 254.564 143.883 253.596 143.883 252.626 143.886 C 249.308 143.887 245.971 143.889 242.653 143.889 C 238.347 143.889 234.06 143.891 229.773 143.898 C 227.691 143.902 225.628 143.903 223.565 143.903 C 221.665 143.902 219.78 143.906 217.879 143.908 C 217.198 143.911 216.516 143.911 215.833 143.911 C 193.913 143.875 173.838 150.696 157.963 166.141 Z" fill="#2C4257" style="stroke-width: 1;" id="object-0" transform="matrix(1, 0, 0, 1, -5.684341886080802e-14, 0)"/></svg>
